<svg width="229" height="328" viewBox="0 0 229 328" fill="none" xmlns="http://www.w3.org/2000/svg">
<path d="M36.4654 327.407H192.094C215.407 327.407 228.56 313.863 228.56 288.858V170.345C228.56 145.471 215.407 131.926 192.094 131.926H36.4654C13.0233 131.926 0 145.471 0 170.345V288.858C0 313.863 13.0233 327.407 36.4654 327.407ZM29.8235 142.996H52.7446V89.7309C52.7446 46.3631 80.2238 21.7489 114.215 21.7489C148.206 21.7489 175.945 46.3631 175.945 89.7309V142.996H198.867V92.4659C198.867 31.777 159.276 0 114.215 0C69.2841 0 29.8235 31.777 29.8235 92.4659V142.996Z" fill="#191C20"/>
<path d="M33.0125 306.599H196.144C199.553 306.599 202.28 304.008 202.28 300.599C202.28 297.123 199.553 294.532 196.144 294.532H33.0125C29.5358 294.532 26.9453 297.123 26.9453 300.599C26.9453 304.008 29.5358 306.599 33.0125 306.599Z" fill="#F8F9FF"/>
<path d="M33.0125 260.583H196.144C199.553 260.583 202.28 257.925 202.28 254.517C202.28 251.107 199.553 248.517 196.144 248.517H33.0125C29.5358 248.517 26.9453 251.107 26.9453 254.517C26.9453 257.925 29.5358 260.583 33.0125 260.583Z" fill="#F8F9FF"/>
<path d="M144.403 214.568H196.144C199.553 214.568 202.28 211.909 202.28 208.501C202.28 205.092 199.553 202.434 196.144 202.434H144.403C140.994 202.434 138.336 205.092 138.336 208.501C138.336 211.909 140.994 214.568 144.403 214.568Z" fill="#F8F9FF"/>
<path d="M144.403 168.485H196.144C199.553 168.485 202.28 165.895 202.28 162.486C202.28 159.078 199.553 156.419 196.144 156.419H144.403C140.994 156.419 138.336 159.078 138.336 162.486C138.336 165.895 140.994 168.485 144.403 168.485Z" fill="#F8F9FF"/>
<path d="M50.5321 220.363C61.3712 220.363 70.3698 212.66 70.3698 201.207C70.3698 190.368 62.8028 182.937 52.3046 182.937C44.8059 182.937 39.4203 187.232 37.6479 194.799L39.0114 194.935C39.6931 178.574 50.6685 167.531 65.3252 166.985C68.3246 166.849 70.5061 164.736 70.5061 161.804C70.5061 158.328 67.6429 156.419 63.8254 156.419C44.2604 156.419 27.4224 173.121 27.4224 194.594C27.4224 210.205 37.4434 220.363 50.5321 220.363ZM103.023 220.363C113.931 220.363 122.929 212.66 122.929 201.207C122.929 190.368 115.43 182.937 104.864 182.937C97.3652 182.937 91.9116 187.232 90.2755 194.799L91.6389 194.935C92.3206 178.574 103.228 167.463 117.816 166.985C120.884 166.849 123.065 164.736 123.065 161.804C123.065 158.328 120.271 156.419 116.385 156.419C96.888 156.419 79.9817 173.121 79.9817 194.594C79.9817 210.205 90.0028 220.363 103.023 220.363Z" fill="#F8F9FF"/>
</svg>
