<svg width="229" height="328" viewBox="0 0 229 328" fill="none" xmlns="http://www.w3.org/2000/svg">
<path d="M36.4654 327.407H192.094C215.407 327.407 228.56 313.863 228.56 288.858V170.345C228.56 145.471 215.407 131.926 192.094 131.926H36.4654C13.0233 131.926 0 145.471 0 170.345V288.858C0 313.863 13.0233 327.407 36.4654 327.407ZM29.8235 142.996H52.7446V89.7309C52.7446 46.3631 80.2238 21.7489 114.215 21.7489C148.206 21.7489 175.945 46.3631 175.945 89.7309V142.996H198.867V92.4659C198.867 31.777 159.276 0 114.215 0C69.2841 0 29.8235 31.777 29.8235 92.4659V142.996Z" fill="#E1E2E8"/>
<path d="M33.0672 305.18H196.199C199.607 305.18 202.334 302.589 202.334 299.18C202.334 295.704 199.607 293.114 196.199 293.114H33.0672C29.5905 293.114 27 295.704 27 299.18C27 302.589 29.5905 305.18 33.0672 305.18Z" fill="#111418"/>
<path d="M33.0672 259.164H196.199C199.607 259.164 202.334 256.506 202.334 253.098C202.334 249.688 199.607 247.098 196.199 247.098H33.0672C29.5905 247.098 27 249.688 27 253.098C27 256.506 29.5905 259.164 33.0672 259.164Z" fill="#111418"/>
<path d="M144.457 213.149H196.199C199.607 213.149 202.334 210.491 202.334 207.082C202.334 203.673 199.607 201.015 196.199 201.015H144.457C141.049 201.015 138.391 203.673 138.391 207.082C138.391 210.491 141.049 213.149 144.457 213.149Z" fill="#111418"/>
<path d="M144.457 167.066H196.199C199.607 167.066 202.334 164.476 202.334 161.067C202.334 157.659 199.607 155 196.199 155H144.457C141.049 155 138.391 157.659 138.391 161.067C138.391 164.476 141.049 167.066 144.457 167.066Z" fill="#111418"/>
<path d="M50.5868 218.944C61.4259 218.944 70.4244 211.241 70.4244 199.788C70.4244 188.949 62.8575 181.518 52.3593 181.518C44.8606 181.518 39.475 185.813 37.7026 193.38L39.0661 193.516C39.7477 177.155 50.7232 166.112 65.3799 165.566C68.3793 165.43 70.5608 163.317 70.5608 160.385C70.5608 156.909 67.6976 155 63.88 155C44.3151 155 27.4771 171.702 27.4771 193.175C27.4771 208.786 37.4981 218.944 50.5868 218.944ZM103.078 218.944C113.985 218.944 122.984 211.241 122.984 199.788C122.984 188.949 115.485 181.518 104.919 181.518C97.4199 181.518 91.9663 185.813 90.3302 193.38L91.6936 193.516C92.3753 177.155 103.283 166.044 117.871 165.566C120.939 165.43 123.12 163.317 123.12 160.385C123.12 156.909 120.326 155 116.44 155C96.9427 155 80.0364 171.702 80.0364 193.175C80.0364 208.786 90.0575 218.944 103.078 218.944Z" fill="#111418"/>
</svg>
