<svg width="229" height="328" viewBox="0 0 229 328" fill="none" xmlns="http://www.w3.org/2000/svg">
<path d="M36.4654 327.407H192.094C215.407 327.407 228.56 313.863 228.56 288.858V170.345C228.56 145.471 215.407 131.926 192.094 131.926H36.4654C13.0233 131.926 0 145.471 0 170.345V288.858C0 313.863 13.0233 327.407 36.4654 327.407ZM29.8235 142.996H52.7446V89.7309C52.7446 46.3631 80.2238 21.7489 114.215 21.7489C148.206 21.7489 175.945 46.3631 175.945 89.7309V142.996H198.867V92.4659C198.867 31.777 159.276 0 114.215 0C69.2841 0 29.8235 31.777 29.8235 92.4659V142.996Z" fill="#191C20"/>
<path d="M32.0672 304.18H195.199C198.607 304.18 201.334 301.589 201.334 298.18C201.334 294.704 198.607 292.114 195.199 292.114H32.0672C28.5905 292.114 26 294.704 26 298.18C26 301.589 28.5905 304.18 32.0672 304.18Z" fill="#F8F9FF"/>
<path d="M32.0672 258.164H195.199C198.607 258.164 201.334 255.506 201.334 252.098C201.334 248.688 198.607 246.098 195.199 246.098H32.0672C28.5905 246.098 26 248.688 26 252.098C26 255.506 28.5905 258.164 32.0672 258.164Z" fill="#F8F9FF"/>
<path d="M143.457 212.149H195.199C198.607 212.149 201.334 209.491 201.334 206.082C201.334 202.673 198.607 200.015 195.199 200.015H143.457C140.049 200.015 137.391 202.673 137.391 206.082C137.391 209.491 140.049 212.149 143.457 212.149Z" fill="#F8F9FF"/>
<path d="M143.457 166.066H195.199C198.607 166.066 201.334 163.476 201.334 160.067C201.334 156.659 198.607 154 195.199 154H143.457C140.049 154 137.391 156.659 137.391 160.067C137.391 163.476 140.049 166.066 143.457 166.066Z" fill="#F8F9FF"/>
<path d="M49.5868 217.944C60.4259 217.944 69.4244 210.241 69.4244 198.788C69.4244 187.949 61.8575 180.518 51.3593 180.518C43.8606 180.518 38.475 184.813 36.7026 192.38L38.0661 192.516C38.7477 176.155 49.7232 165.112 64.3799 164.566C67.3793 164.43 69.5608 162.317 69.5608 159.385C69.5608 155.909 66.6976 154 62.88 154C43.3151 154 26.4771 170.702 26.4771 192.175C26.4771 207.786 36.4981 217.944 49.5868 217.944ZM102.078 217.944C112.985 217.944 121.984 210.241 121.984 198.788C121.984 187.949 114.485 180.518 103.919 180.518C96.4199 180.518 90.9663 184.813 89.3302 192.38L90.6936 192.516C91.3753 176.155 102.283 165.044 116.871 164.566C119.939 164.43 122.12 162.317 122.12 159.385C122.12 155.909 119.326 154 115.44 154C95.9427 154 79.0364 170.702 79.0364 192.175C79.0364 207.786 89.0575 217.944 102.078 217.944Z" fill="#F8F9FF"/>
</svg>
